<svg width="24" height="24" viewBox="0 0 24 24" fill="none" xmlns="http://www.w3.org/2000/svg">
<path d="M7 2C7.55228 2 8 2.44772 8 3V4H16V3C16 2.44772 16.4477 2 17 2C17.5523 2 18 2.44772 18 3V4H20C21.1046 4 22 4.89543 22 6V9H2V6C2 4.89543 2.89543 4 4 4H6V3C6 2.44772 6.44772 2 7 2Z" fill="#0E0E0E"/>
<path fill-rule="evenodd" clip-rule="evenodd" d="M22 19C22 20.1046 21.1046 21 20 21H4C2.89543 21 2 20.1046 2 19V11H22V19ZM9 15C9 14.4477 9.44772 14 10 14H14C14.5523 14 15 14.4477 15 15C15 15.5523 14.5523 16 14 16H10C9.44772 16 9 15.5523 9 15Z" fill="#0E0E0E"/>
</svg>
