<svg width="22" height="24" viewBox="0 0 22 24" fill="none" xmlns="http://www.w3.org/2000/svg">
<g id="Refresh 1">
<g id="Vector">
<path fill-rule="evenodd" clip-rule="evenodd" d="M3.01269 1.00335C3.01454 0.589137 2.68025 0.251856 2.26604 0.250008C1.85183 0.24816 1.51455 0.582445 1.5127 0.996654L1.50365 3.02568C1.50026 3.78057 1.49743 4.41015 1.55271 4.91635C1.61069 5.44728 1.74029 5.93661 2.06926 6.36169C2.14048 6.45372 2.21743 6.54101 2.29962 6.62306C2.38076 6.70408 2.467 6.77998 2.55786 6.85029C2.98294 7.17926 3.47227 7.30886 4.0032 7.36684C4.50939 7.42211 5.13897 7.41929 5.89383 7.4159L7.9229 7.40685C8.3371 7.405 8.67139 7.06772 8.66954 6.65351C8.66769 6.2393 8.33041 5.90501 7.9162 5.90686L5.93049 5.91572C5.12107 5.91933 4.57738 5.92062 4.16604 5.8757C4.13511 5.87232 4.10551 5.86873 4.07717 5.86494C5.77277 3.9531 8.2455 2.75 11 2.75C16.1086 2.75 20.25 6.89137 20.25 12C20.25 12.4142 20.5858 12.75 21 12.75C21.4142 12.75 21.75 12.4142 21.75 12C21.75 6.06294 16.9371 1.25 11 1.25C7.84724 1.25 5.01093 2.60807 3.04555 4.76878L3.04385 4.75351C2.99893 4.34217 3.00022 3.79848 3.00383 2.98906L3.01269 1.00335Z" fill="#2D264B"/>
<path d="M1.75 12C1.75 11.5858 1.41421 11.25 1 11.25C0.585786 11.25 0.25 11.5858 0.25 12C0.25 17.9371 5.06294 22.75 11 22.75C14.1177 22.75 16.926 21.4219 18.8886 19.303C18.9203 19.6969 18.919 20.2078 18.9157 20.9305L18.9069 22.9162C18.905 23.3305 19.2393 23.6677 19.6535 23.6696C20.0677 23.6714 20.405 23.3371 20.4069 22.9229L20.4159 20.8939C20.4193 20.139 20.4221 19.5094 20.3668 19.0032C20.3089 18.4723 20.1793 17.983 19.8503 17.5579C19.7885 17.4781 19.7225 17.4019 19.6524 17.3295C19.5619 17.2361 19.4648 17.1491 19.3617 17.0693C18.9366 16.7403 18.4473 16.6107 17.9164 16.5528C17.4102 16.4975 16.7806 16.5003 16.0257 16.5037L13.9967 16.5127C13.5824 16.5146 13.2482 16.8519 13.25 17.2661C13.2519 17.6803 13.5891 18.0146 14.0034 18.0127L15.9891 18.0039C16.7985 18.0003 17.3422 17.999 17.7535 18.0439C17.8365 18.053 17.91 18.0636 17.9752 18.0755C16.2784 20.0219 13.783 21.25 11 21.25C5.89137 21.25 1.75 17.1086 1.75 12Z" fill="#2D264B"/>
</g>
</g>
</svg>
